# xmcd
#
# Track frame offsets:
#	150
#	16365
#	28389
#	39104
#	60118
#	72410
#	88182
#	105311
#	126119
#	136573
#	149079
#	171263
#	176001
#
# Disc length: 2601 seconds
#
# Revision: 2
# Processed by: cddbd v1.5.2PL0 Copyright (c) Steve Scherf et al.
# Submitted via: SynApp - FreeCDDB Version: 2.5
#
DISCID=ad0a270d
DTITLE=Granfaloon Bus - Good Funeral Weather
DYEAR=1998
DGENRE=Americana
TTITLE0=Seeded Clouds
TTITLE1=Believers
TTITLE2=Worldwar Lovesong (WWI)
TTITLE3=Potboiler
TTITLE4=Too Angry To Fly
TTITLE5=Some Kind Of Other Love (WWII)
TTITLE6=Cold Morning
TTITLE7=Borders
TTITLE8=We're Sellin' Helen's Hearse
TTITLE9=A Bunch Of Times
TTITLE10=I'm A Leaf
TTITLE11=Sound [G Freeman]
TTITLE12=Oysterpirates
EXTD=TR 20132 YEAR: 1998
EXTT0=
EXTT1=
EXTT2=
EXTT3=
EXTT4=
EXTT5=
EXTT6=
EXTT7=
EXTT8=
EXTT9=
EXTT10=
EXTT11=
EXTT12=
PLAYORDER=
